<?xml version="1.0" encoding="iso-8859-1"?>
<!-- Generator: Adobe Illustrator 24.3.0, SVG Export Plug-In . SVG Version: 6.00 Build 0)  -->
<svg version="1.1" xmlns="http://www.w3.org/2000/svg" xmlns:xlink="http://www.w3.org/1999/xlink" x="0px" y="0px"
	 viewBox="0 0 512 512" style="enable-background:new 0 0 512 512;" xml:space="preserve">
<g id="_x30_9_Graduation_Cap">
	<g>
		<path style="fill:#898580;" d="M418.49,139.747v134.673c-0.368,27.744-73.003,50.116-162.49,50.116
			c-89.488,0-162.123-22.372-162.49-50.116V139.747H418.49z"/>
		<path style="fill:#F5F5E3;" d="M494.723,148.545l-223.608,74.621c-9.811,3.274-20.419,3.274-30.23,0L17.277,148.545
			c-8.45-2.82-8.45-14.772,0-17.591l223.608-74.621c9.811-3.274,20.419-3.274,30.23,0l223.608,74.621
			C503.173,133.774,503.173,145.725,494.723,148.545z"/>
		<path style="fill:#F9D964;" d="M377.718,398.912c0,16.415-13.292,59.192-29.707,59.192c-16.415,0-29.707-42.777-29.707-59.192
			c0-16.415,13.292-29.707,29.707-29.707C364.425,369.205,377.718,382.498,377.718,398.912z"/>
		<path d="M496.274,126.303L272.666,51.684c-10.75-3.585-22.582-3.585-33.332,0L15.726,126.303
			c-12.927,4.319-12.907,22.581,0,26.892l72.881,24.322v96.966c0.627,47.209,150.848,67.055,254.504,47.203v43.006
			c-16.764,2.393-29.709,16.807-29.709,34.222c0,15.45,12.655,64.091,34.61,64.091c21.95,0,34.605-48.641,34.605-64.091
			c0-17.415-12.94-31.828-29.704-34.222v-45.04c40.638-9.076,70.202-24.33,70.479-45.233v-96.902l72.881-24.322
			C509.201,148.877,509.18,130.615,496.274,126.303z M372.815,398.913c0,17.489-13.895,54.289-24.803,54.289
			s-24.808-36.8-24.808-54.289c0-13.679,11.128-24.808,24.808-24.808C361.687,374.106,372.815,385.234,372.815,398.913z
			 M98.41,274.418v-93.63l140.924,47.028c10.564,3.523,22.387,3.65,33.332,0l70.445-23.509V311.63
			C237.664,332.957,98.859,308.395,98.41,274.418z M413.59,274.354c-0.167,12.676-22.94,26.207-60.676,35.142V201.036l60.676-20.249
			V274.354z M348.656,192.122l-90.053-56.524c-2.288-1.434-5.318-0.744-6.754,1.546c-1.441,2.293-0.747,5.318,1.546,6.758
			l83.221,52.237l-67.053,22.377c-8.749,2.92-18.38,2.92-27.129,0L18.828,143.895c-3.981-1.327-3.991-6.962,0-8.292l223.608-74.619
			c8.749-2.92,18.379-2.92,27.129,0l223.608,74.619c3.993,1.331,3.979,6.966,0,8.292L348.656,192.122z"/>
	</g>
</g>
<g id="Layer_1">
</g>
</svg>
