<?xml version="1.0" encoding="UTF-8"?>
<svg version="1.1" xmlns="http://www.w3.org/2000/svg" width="1054" height="394">
<path d="M0 0 C347.82 0 695.64 0 1054 0 C1054 130.02 1054 260.04 1054 394 C706.18 394 358.36 394 0 394 C0 263.98 0 133.96 0 0 Z " fill="#FDFDFD" transform="translate(0,0)"/>
<path d="M0 0 C1.43290485 -0.01692946 2.86575186 -0.04022232 4.29843521 -0.07057571 C16.57952801 -0.31354474 25.42701126 1.5039155 34.44838905 10.11088371 C43.38559101 20.07250803 43.7243605 31.67152057 43.7154789 44.45585442 C43.72147389 45.86626856 43.72828165 47.27667944 43.73583412 48.68708611 C43.7534018 52.49510647 43.75818555 56.30303678 43.75946569 60.11109376 C43.76089302 62.49641608 43.76517354 64.88171592 43.77046013 67.26703262 C43.78892932 75.60619228 43.79713458 83.94528826 43.79555702 92.2844677 C43.79435622 100.02972086 43.81545444 107.7746951 43.84704435 115.51987773 C43.87328412 122.19366544 43.88392112 128.86736246 43.8826462 135.54120129 C43.88213886 139.51654309 43.88769493 143.49163666 43.9090023 147.46692657 C43.92851552 151.20915484 43.92842114 154.95090136 43.91396904 158.69314766 C43.91091628 160.70180692 43.92746493 162.71046692 43.94484901 164.71905327 C43.85424649 177.93353432 40.54799599 188.00595013 31.3194828 197.47416496 C24.3320327 204.1008173 17.82981135 206.78343919 8.18911171 206.70219231 C7.00686736 206.70996303 7.00686736 206.70996303 5.80073929 206.71789074 C3.18830479 206.73089265 0.57645585 206.72210142 -2.03598595 206.71244621 C-3.90531155 206.71562588 -5.7746357 206.71978486 -7.64395714 206.72485161 C-12.69130835 206.7332957 -17.73837623 206.72000375 -22.7856884 206.70032692 C-25.96846939 206.68894283 -29.15122345 206.68278736 -32.33402061 206.67793083 C-68.5169452 206.61297932 -104.60748297 205.58842857 -140.75410461 204.07017708 C-163.14674706 203.1313888 -185.5471212 202.45406079 -207.94918633 201.78499031 C-211.04394752 201.69182645 -214.13863902 201.59664975 -217.23331261 201.5006237 C-240.21274085 200.78823552 -263.18905341 200.22355112 -286.17661095 199.85307121 C-309.02801186 199.48453697 -331.87297035 198.96625326 -354.7195797 198.37650871 C-355.54524256 198.35521668 -356.37090542 198.33392465 -357.22158837 198.3119874 C-367.371932 198.04998655 -377.52217773 197.78430944 -387.67238265 197.51699412 C-401.34751495 197.15689283 -415.02275939 196.80107035 -428.69801122 196.44554138 C-432.82571747 196.33822628 -436.9534196 196.23075803 -441.08111191 196.12290764 C-459.90393491 195.63121746 -478.72677873 195.16076851 -497.55161095 194.75150871 C-512.59060371 194.42414941 -527.62159987 193.99022957 -542.65442467 193.44093132 C-562.37681987 192.72226096 -582.09744729 192.11327871 -601.8284359 191.69437981 C-612.59716685 191.465578 -623.3529851 191.1571575 -634.11435509 190.68656731 C-643.31139103 190.31058557 -652.509337 190.15293555 -661.71201134 189.99052238 C-679.31403103 189.67908573 -696.91686391 189.32950273 -714.50766563 188.6108532 C-716.32919723 188.5385545 -718.15099413 188.47262943 -719.97299767 188.41340446 C-722.49123386 188.32966785 -725.00727941 188.22174237 -727.5242672 188.10697746 C-728.25638924 188.08704735 -728.98851128 188.06711723 -729.74281883 188.04658318 C-734.74124145 187.77957193 -737.70648018 186.45380545 -741.57504845 183.31400871 C-743.9628119 179.77353187 -744.73550154 176.77879816 -745.1492672 172.60697746 C-745.23136436 171.8015551 -745.31346153 170.99613274 -745.39804649 170.16630363 C-745.45645714 169.55504631 -745.51486778 168.94378899 -745.57504845 168.31400871 C-745.03090294 168.04773674 -744.48675743 167.78146477 -743.92612267 167.50712395 C-741.42556603 166.27173306 -738.93807245 165.0119373 -736.45004845 163.75150871 C-735.1661422 163.12405754 -735.1661422 163.12405754 -733.85629845 162.48393059 C-727.38481196 159.17351635 -721.9527694 155.44717158 -719.57504845 148.31400871 C-718.4655785 135.05248087 -718.97916186 122.09262043 -727.57504845 111.31400871 C-733.20930615 105.14253109 -740.0460571 101.73969978 -747.57504845 98.31400871 C-748.205136 86.48236461 -747.23439249 75.64277131 -739.3758297 66.24369621 C-738.78157188 65.60689934 -738.18731407 64.97010246 -737.57504845 64.31400871 C-736.88797813 63.57408684 -736.20090782 62.83416496 -735.4930172 62.07182121 C-721.67934453 48.46432277 -703.01708552 44.89572909 -684.3692379 43.28739738 C-683.41622701 43.20328952 -682.46321611 43.11918165 -681.4813261 43.03252506 C-672.12577315 42.23231246 -662.76148635 41.68609881 -653.38487625 41.20438576 C-650.29931245 41.0455353 -647.21409139 40.88102183 -644.12889671 40.71516228 C-639.6646849 40.47525088 -635.20040398 40.23670492 -630.73605919 39.99928093 C-592.40223673 37.95498648 -554.10635412 35.61611877 -515.82504845 32.75150871 C-485.27437825 30.46660017 -454.72771084 28.42964709 -424.13754845 26.75150871 C-396.23746238 25.22056236 -368.37467123 23.42695219 -340.51254845 21.31400871 C-312.59956376 19.19773807 -284.68730034 17.40123308 -256.73697853 15.858675 C-223.10381252 13.99854327 -189.51114202 11.64975162 -155.91651446 9.20390296 C-80.21939246 3.69312031 -80.21939246 3.69312031 -47.92651176 1.87436104 C-45.8255708 1.75508661 -43.72486133 1.63234208 -41.62418175 1.50855827 C-27.75830649 0.70275092 -13.88899834 0.14484402 0 0 Z " fill="#5D3A23" transform="translate(977.5750484466553,131.68599128723145)"/>
<path d="M0 0 C6.87858699 -0.07736634 13.75705816 -0.12913803 20.63598633 -0.16479492 C22.96610708 -0.17969155 25.29620079 -0.20001569 27.6262207 -0.22631836 C65.35851719 -0.64095898 101.11986439 5.73942296 129 33 C129.55220215 33.52787109 130.1044043 34.05574219 130.67333984 34.59960938 C150.66838562 53.72483554 150.66838562 53.72483554 151.203125 63.84375 C151.63254563 88.5341025 139.74128566 106.57940547 125.171875 125.73828125 C112.85953008 141.96352021 105.38190788 158.15065799 101.625 178.1875 C100.11228104 185.5963849 97.43324751 192.82059582 93 199 C90.2734375 199.88671875 90.2734375 199.88671875 88 200 C88 203.3 88 206.6 88 210 C81.0423622 208.06078305 74.70522615 205.64964162 68.1875 202.5625 C60.58809001 199.06879267 53.14733092 196.0014535 45 194 C43.87851563 193.70351562 42.75703125 193.40703125 41.6015625 193.1015625 C22.01868412 188.62664899 1.96586691 189.65222186 -17 196 C-18.31382755 196.41164893 -19.628895 196.81936647 -20.9453125 197.22265625 C-23.14620233 197.89743456 -25.34262596 198.58722212 -27.53125 199.30078125 C-30 200 -30 200 -33 200 C-33.33 201.32 -33.66 202.64 -34 204 C-35 203 -35 203 -35.1328125 200.8203125 C-35.12894531 199.48613281 -35.12894531 199.48613281 -35.125 198.125 C-35.12757812 197.24070313 -35.13015625 196.35640625 -35.1328125 195.4453125 C-35 193 -35 193 -34 190 C-34.845625 189.835 -35.69125 189.67 -36.5625 189.5 C-45.33522571 185.67190151 -49.44476984 176.40416907 -53 168 C-55.78845454 160.64788293 -57.9834866 153.26344359 -59.78515625 145.6171875 C-61.76700686 137.4784212 -64.32449727 129.58463166 -67.03155518 121.66207886 C-68.10343588 118.52296376 -69.15957114 115.37861767 -70.21679688 112.23454285 C-70.99787142 109.91226441 -71.78085172 107.59063462 -72.56396484 105.26904297 C-74.45015608 99.66898958 -76.30747482 94.06023323 -78.125 88.4375 C-78.39546143 87.62007324 -78.66592285 86.80264648 -78.94458008 85.96044922 C-83.70422396 71.12893453 -84.07853259 58.0517274 -80 43 C-79.34 43 -78.68 43 -78 43 C-78 42.01 -78 41.02 -78 40 C-77.34 40 -76.68 40 -76 40 C-75.34 38.02 -74.68 36.04 -74 34 C-73.34 34 -72.68 34 -72 34 C-71.773125 33.443125 -71.54625 32.88625 -71.3125 32.3125 C-67.98300971 26.4462552 -61.01534126 20.27471151 -54.5390625 18.21875 C-37.43478261 14 -37.43478261 14 -30 14 C-29.67 13.01 -29.34 12.02 -29 11 C-20.51459657 6.35179042 -9.75172709 2 0 2 C0 1.34 0 0.68 0 0 Z " fill="#DED7C2" transform="translate(116,14)"/>
<path d="M0 0 C-0.33 1.32 -0.66 2.64 -1 4 C-0.01 4.33 0.98 4.66 2 5 C2.57751537 35.58758306 1.09941455 66.15422663 -5.05078125 96.21875 C-5.75871505 99.68550887 -6.32245625 103.09532289 -6.625 106.625 C-6.69976562 107.46289062 -6.77453125 108.30078125 -6.8515625 109.1640625 C-6.90054688 109.76992187 -6.94953125 110.37578125 -7 111 C-7.99 111 -8.98 111 -10 111 C-11.27070707 103.67295634 -12.5332258 96.34453439 -13.7902832 89.01513672 C-14.21812269 86.52621157 -14.64777873 84.03759793 -15.0793457 81.54931641 C-15.70230911 77.95557375 -16.31855107 74.36073066 -16.93359375 70.765625 C-17.12529648 69.66825012 -17.31699921 68.57087524 -17.51451111 67.44024658 C-20.81408575 48.0178741 -21.59930739 29.52331177 -14 11 C-13.443125 9.6078125 -13.443125 9.6078125 -12.875 8.1875 C-12.58625 7.465625 -12.2975 6.74375 -12 6 C-12.99 6 -13.98 6 -15 6 C-28.93844587 22.13755101 -27.96346341 45.03241769 -27 65 C-25.03572991 86.99343713 -18.89824006 108.46713755 -12.25 129.4375 C-11.86110596 130.67153564 -11.47221191 131.90557129 -11.0715332 133.17700195 C-10.7024585 134.31355225 -10.33338379 135.45010254 -9.953125 136.62109375 C-9.62473633 137.6361499 -9.29634766 138.65120605 -8.95800781 139.69702148 C-8.22868876 142.15818 -8.22868876 142.15818 -6 143 C-6 145.97 -6 148.94 -6 152 C2.58 152 11.16 152 20 152 C20 152.66 20 153.32 20 154 C19.27635254 154.06993164 18.55270508 154.13986328 17.80712891 154.21191406 C3.29492956 155.64266188 -10.86467643 157.35992321 -25 161 C-24.67 161.66 -24.34 162.32 -24 163 C-26.45264589 164.84104236 -28.91300959 166.67147793 -31.375 168.5 C-32.07367188 169.02464844 -32.77234375 169.54929688 -33.4921875 170.08984375 C-34.1625 170.58613281 -34.8328125 171.08242187 -35.5234375 171.59375 C-36.450354 172.28500977 -36.450354 172.28500977 -37.39599609 172.99023438 C-39 174 -39 174 -41 174 C-41.268125 174.86625 -41.53625 175.7325 -41.8125 176.625 C-42.97111987 179.91791964 -44.38209839 182.91127875 -46 186 C-48.5625 186.5 -48.5625 186.5 -52 186 C-64.1646738 176.5295157 -68.4249267 157.87794593 -71.78515625 143.6171875 C-73.76700686 135.4784212 -76.32449727 127.58463166 -79.03155518 119.66207886 C-80.10343588 116.52296376 -81.15957114 113.37861767 -82.21679688 110.23454285 C-82.99787142 107.91226441 -83.78085172 105.59063462 -84.56396484 103.26904297 C-86.45015608 97.66898958 -88.30747482 92.06023323 -90.125 86.4375 C-90.39546143 85.62007324 -90.66592285 84.80264648 -90.94458008 83.96044922 C-95.70422396 69.12893453 -96.07853259 56.0517274 -92 41 C-91.34 41 -90.68 41 -90 41 C-90 40.01 -90 39.02 -90 38 C-89.34 38 -88.68 38 -88 38 C-87.34 36.02 -86.68 34.04 -86 32 C-85.34 32 -84.68 32 -84 32 C-83.773125 31.443125 -83.54625 30.88625 -83.3125 30.3125 C-79.98300971 24.4462552 -73.01534126 18.27471151 -66.5390625 16.21875 C-49.43478261 12 -49.43478261 12 -42 12 C-41.67 11.01 -41.34 10.02 -41 9 C-27.88871281 1.81778277 -14.77472361 -0.54496931 0 0 Z " fill="#F3F1E4" transform="translate(128,16)"/>
<path d="M0 0 C1.32257813 -0.01836914 1.32257813 -0.01836914 2.671875 -0.03710938 C7.95636733 -0.04890512 12.24951774 0.47863406 17.25 2.1875 C18.508125 2.55875 19.76625 2.93 21.0625 3.3125 C33.58538473 8.14206213 42.3954733 19.81628517 47.8046875 31.609375 C53.75678842 46.34484646 52.47748893 64.23448228 47.25390625 79.00390625 C41.48515115 91.75904296 30.70981152 100.2824596 18 105.5625 C3.62036498 110.30124336 -12.74014687 109.15952242 -26.25 102.5 C-39.06023132 95.77485606 -46.33705104 85.34696001 -51.0234375 71.6953125 C-55.38740932 56.63257104 -53.7555035 38.27602569 -46.24609375 24.52734375 C-36.21927865 8.84571909 -18.34946438 0.01318209 0 0 Z " fill="#F8F7F7" transform="translate(413.75,192.8125)"/>
<path d="M0 0 C8.30601604 7.55641925 13.17604682 16.55881533 17 27 C17.433125 28.11375 17.86625 29.2275 18.3125 30.375 C21.19092757 45.55216355 17.3784389 59.91507076 9.0625 72.6875 C8.04840826 74.12976381 7.02811175 75.56769655 6 77 C5.29875 78.051875 4.5975 79.10375 3.875 80.1875 C-3.07565532 88.23327464 -16.01245688 91.00249138 -26 93 C-42.5 93 -59 93 -76 93 C-76 59.34 -76 25.68 -76 -9 C-18.94056506 -11.85297175 -18.94056506 -11.85297175 0 0 Z " fill="#F9F7F6" transform="translate(548,205)"/>
<path d="M0 0 C9.24 0 18.48 0 28 0 C28 11.88 28 23.76 28 36 C40.54 36 53.08 36 66 36 C65.34 31.71 64.68 27.42 64 23 C63.8730594 19.1892431 63.80426572 15.48680718 63.875 11.6875 C63.91625 8.490625 63.9575 5.29375 64 2 C73.24 2 82.48 2 92 2 C93.82046846 33.98823149 94.15574679 65.96807711 94 98 C84.1 98 74.2 98 64 98 C64 85.46 64 72.92 64 60 C52.12 60 40.24 60 28 60 C28 72.54 28 85.08 28 98 C18.76 98 9.52 98 0 98 C0 89 0 89 2 86 C2.99 86 3.98 86 5 86 C5.12503906 85.28457031 5.25007812 84.56914062 5.37890625 83.83203125 C6.00478071 80.97820119 6.89214308 78.41331749 7.9375 75.6875 C9.62460939 71.1599119 10.93365633 66.70968453 12 62 C11.13375 61.79375 10.2675 61.5875 9.375 61.375 C5.28741179 59.70968628 2.70517789 57.46298016 0 54 C-0.95199368 51.14401895 -1.12872721 49.36866745 -1.1328125 46.40625 C-1.13474609 45.47039062 -1.13667969 44.53453125 -1.13867188 43.5703125 C-1.13416016 42.55710938 -1.12964844 41.54390625 -1.125 40.5 C-1.12209961 38.93378906 -1.12209961 38.93378906 -1.11914062 37.3359375 C-1.05287812 24.87858625 -0.51857336 12.4457607 0 0 Z " fill="#F2EDDA" transform="translate(746,200)"/>
<path d="M0 0 C22.44 0 44.88 0 68 0 C72 13 72 13 72 24 C58.14 24 44.28 24 30 24 C30.66 27.96 31.32 31.92 32 36 C33.73765625 36.06058594 35.4753125 36.12117188 37.265625 36.18359375 C39.59375533 36.26808235 41.92188004 36.35272607 44.25 36.4375 C45.38953125 36.47681641 46.5290625 36.51613281 47.703125 36.55664062 C48.8375 36.59853516 49.971875 36.64042969 51.140625 36.68359375 C52.16704102 36.72025146 53.19345703 36.75690918 54.25097656 36.79467773 C59.50812484 37.08259527 64.75316013 37.56276334 70 38 C69.34 45.92 68.68 53.84 68 62 C55.46 62 42.92 62 30 62 C30.66 66.62 31.32 71.24 32 76 C45.86 76 59.72 76 74 76 C73.5359375 82.1565625 73.5359375 82.1565625 73.0625 88.4375 C72.91953491 90.38160767 72.91953491 90.38160767 72.77368164 92.36499023 C72.69496826 93.37762939 72.61625488 94.39026855 72.53515625 95.43359375 C72.41732788 96.99678345 72.41732788 96.99678345 72.29711914 98.59155273 C72 101 72 101 71 102 C68.79132169 102.09432985 66.57958479 102.11742431 64.36889648 102.11352539 C63.66501077 102.11364593 62.96112505 102.11376646 62.23590946 102.11389065 C59.94760589 102.11314167 57.65938283 102.10551417 55.37109375 102.09765625 C53.96228067 102.09618678 52.55346705 102.0951661 51.14465332 102.09460449 C45.90892724 102.08935216 40.67321284 102.07539107 35.4375 102.0625 C17.8959375 102.0315625 17.8959375 102.0315625 0 102 C0 68.34 0 34.68 0 0 Z " fill="#FAF9F8" transform="translate(572,196)"/>
<path d="M0 0 C22.44 0 44.88 0 68 0 C70 18 70 18 70 22 C56.14 22 42.28 22 28 22 C28.66 25.96 29.32 29.92 30 34 C42.54 34 55.08 34 68 34 C67.34 41.92 66.68 49.84 66 58 C53.46 58 40.92 58 28 58 C29.32 61.96 30.64 65.92 32 70 C32 70.66 32 71.32 32 72 C45.2 72 58.4 72 72 72 C71.5359375 77.6615625 71.5359375 77.6615625 71.0625 83.4375 C70.91953491 85.22498657 70.91953491 85.22498657 70.77368164 87.04858398 C70.69496826 87.98001221 70.61625488 88.91144043 70.53515625 89.87109375 C70.456604 90.82943115 70.37805176 91.78776855 70.29711914 92.77514648 C70 95 70 95 69 96 C66.85256451 96.09425595 64.70198974 96.11742648 62.55249023 96.11352539 C61.86842889 96.11364593 61.18436754 96.11376646 60.47957706 96.11389065 C58.25588337 96.11314171 56.03227254 96.10551441 53.80859375 96.09765625 C52.43949423 96.09618677 51.07039414 96.0951661 49.70129395 96.09460449 C44.61335409 96.08935232 39.52542624 96.07539122 34.4375 96.0625 C23.073125 96.041875 11.70875 96.02125 0 96 C0 64.32 0 32.64 0 0 Z " fill="#F4EFDC" transform="translate(848,202)"/>
<path d="M0 0 C2.20328304 2.24971238 3.28567192 3.62020928 3.9609375 6.69921875 C3.72485843 13.5347808 0.23006882 18.82987399 -3.5625 24.3125 C-4.2225 25.3025 -4.8825 26.2925 -5.5625 27.3125 C-17.13040945 24.76755992 -17.13040945 24.76755992 -21.4375 22.125 C-27.46960599 18.8105165 -35.81245458 19.24182706 -42.28515625 21.08984375 C-44.89436891 22.49067319 -46.10955353 23.84346775 -47.8125 26.25 C-48.31265625 26.93964844 -48.8128125 27.62929687 -49.328125 28.33984375 C-53.25534967 34.61594647 -52.19807877 44.12138015 -51.5625 51.3125 C-50.27701645 56.50771849 -47.97228552 61.1276549 -43.5625 64.3125 C-36.73185214 67.89119934 -30.32855229 68.07847674 -22.875 66.5625 C-19.47075459 65.43725101 -19.47075459 65.43725101 -16.5625 63.1875 C-12.83732718 60.85926699 -10.88224163 60.60563319 -6.5625 61.3125 C-3.875 63.5 -3.875 63.5 -1.5625 66.3125 C-0.82 67.17875 -0.0775 68.045 0.6875 68.9375 C3.66529717 72.97879616 3.8616375 76.39250505 3.4375 81.3125 C0.85093399 85.07911225 -2.0842146 87.73973586 -5.75 90.4375 C-6.63042969 91.10007812 -7.51085937 91.76265625 -8.41796875 92.4453125 C-16.20346976 97.06825596 -23.49534027 97.81217684 -32.4375 97.75 C-33.44941406 97.76998047 -34.46132813 97.78996094 -35.50390625 97.81054688 C-48.14998105 97.8024508 -59.97889201 92.75600922 -69.25 84.125 C-82.27772412 70.20412221 -84.25085669 54.93970746 -83.68994141 36.67382812 C-83.04290268 24.68501855 -77.70289504 12.90460423 -69.125 4.5 C-50.10408938 -11.2154475 -20.62438246 -15.79603866 0 0 Z " fill="#F8F7F7" transform="translate(356.5625,202.6875)"/>
<path d="M0 0 C-0.14224587 2.52108103 -0.28870121 5.04180403 -0.4375 7.5625 C-0.47681641 8.26697266 -0.51613281 8.97144531 -0.55664062 9.69726562 C-0.82518279 14.1798541 -1.30616197 18.56293497 -2 23 C-3.29292969 22.95359375 -4.58585938 22.9071875 -5.91796875 22.859375 C-22.46714849 22.03008691 -22.46714849 22.03008691 -37.015625 28.765625 C-38.64119284 30.76996593 -39.8387495 32.69853614 -41 35 C-41.33515625 35.65355469 -41.6703125 36.30710938 -42.015625 36.98046875 C-45.72758423 45.43361226 -44.16634587 53.18237491 -41.328125 61.70703125 C-38.71202704 68.19341531 -35.49959503 74.9207092 -29.3125 78.625 C-21.8014498 81.74279442 -14.31723342 81.58538758 -6.3125 80.5 C2.54874939 76.48735877 7.40439561 69.81736153 11 61 C14.40297337 61.82115227 17.68604223 62.87024167 21 64 C21 64.66 21 65.32 21 66 C21.61875 66.12375 22.2375 66.2475 22.875 66.375 C25 67 25 67 27 69 C28.1397524 77.92606089 27.43136609 85.68168043 22 93 C12.90173397 103.36088254 -0.37880304 109.04580056 -14 110 C-17.67451696 110.13064949 -21.32512572 110.10544833 -25 110 C-26.14662109 109.99226563 -26.14662109 109.99226563 -27.31640625 109.984375 C-39.52510224 109.37284819 -49.11901601 100.4410777 -56.96875 91.84375 C-69.02410613 77.25042416 -73.7542031 59.08400188 -72.30908203 40.43505859 C-70.83347373 28.80968956 -65.42005785 20.0176834 -57 12 C-56.44699219 11.36835938 -55.89398437 10.73671875 -55.32421875 10.0859375 C-41.63404535 -5.33673923 -18.32933911 -7.81789016 0 0 Z " fill="#F1ECD9" transform="translate(722,193)"/>
<path d="M0 0 C1.03423096 -0.00749268 1.03423096 -0.00749268 2.08935547 -0.01513672 C4.02307708 -0.02675485 5.95687783 -0.02163665 7.890625 -0.015625 C8.97891602 -0.01336914 10.06720703 -0.01111328 11.18847656 -0.00878906 C13.75 0.25 13.75 0.25 15.75 2.25 C15.97705078 4.49658203 15.97705078 4.49658203 15.9453125 7.2578125 C15.94031738 8.1461377 15.93532227 9.03446289 15.93017578 9.94970703 C15.91196777 11.08005371 15.89375977 12.21040039 15.875 13.375 C15.83375 16.96375 15.7925 20.5525 15.75 24.25 C2.55 24.25 -10.65 24.25 -24.25 24.25 C-24.91 28.21 -25.57 32.17 -26.25 36.25 C-13.71 36.25 -1.17 36.25 11.75 36.25 C11.75 44.83 11.75 53.41 11.75 62.25 C-0.79 62.25 -13.33 62.25 -26.25 62.25 C-26.25 74.13 -26.25 86.01 -26.25 98.25 C-35.49 98.25 -44.73 98.25 -54.25 98.25 C-54.91532431 80.00110461 -55.42633759 61.75661663 -55.8125 43.5 C-55.83464569 42.48196289 -55.85679138 41.46392578 -55.87960815 40.41503906 C-56.15429036 27.69129807 -56.31273743 14.97673509 -56.25 2.25 C-37.50800877 1.09551299 -18.78218546 0.04814823 0 0 Z " fill="#F2EDDA" transform="translate(980.25,199.75)"/>
<path d="M0 0 C5.57286712 4.49278375 10.58059774 8.59853985 11.5625 15.9375 C13.188372 32.79016532 13.188372 32.79016532 8.5625 39.75 C4.27992709 44.78832107 -0.8422396 48.7165988 -7.4375 49.9375 C-14.11456214 50.47625766 -20.80793701 50.92822537 -26.7265625 47.39453125 C-32.81088391 42.21313425 -36.72600619 34.1867432 -37.7890625 26.34375 C-38.28231418 17.10177118 -34.76708177 10.55668354 -29.0625 3.5 C-21.43716721 -4.56525584 -9.41914255 -6.33159884 0 0 Z " fill="#553724" transform="translate(425.4375,223.0625)"/>
<path d="M0 0 C6.6448342 0.00061922 11.91625875 0.13503226 17.2109375 4.5859375 C24.6887268 12.87579441 28.46181055 21.85109129 28.2734375 33.078125 C27.0958252 41.56788809 21.0605368 48.85171158 14.9375 54.5 C11.77495248 56.43713015 9.41783232 56.7381434 5.734375 56.6953125 C4.26484375 56.68564453 4.26484375 56.68564453 2.765625 56.67578125 C1.24195313 56.65064453 1.24195313 56.65064453 -0.3125 56.625 C-1.34375 56.61597656 -2.375 56.60695313 -3.4375 56.59765625 C-5.97940287 56.57412011 -8.5208328 56.54124023 -11.0625 56.5 C-11.11307791 48.84622001 -11.14818184 41.19248287 -11.17236328 33.53857422 C-11.18244064 30.93308909 -11.1961027 28.32761531 -11.21337891 25.72216797 C-11.23755102 21.98402101 -11.2489656 18.24602315 -11.2578125 14.5078125 C-11.26813507 13.33695099 -11.27845764 12.16608948 -11.28909302 10.95974731 C-11.28924408 9.87877777 -11.28939514 8.79780823 -11.28955078 7.68408203 C-11.293992 6.72921906 -11.29843323 5.77435608 -11.30300903 4.79055786 C-10.67250721 -1.21420996 -4.65811531 0.03121531 0 0 Z " fill="#603C25" transform="translate(511.0625,217.5)"/>
<path d="M0 0 C4.53327936 1.65296431 8.72410699 3.77899658 13 6 C17.23008134 7.41002711 21.25593733 7.22440253 25.6875 7.25 C26.99750977 7.2809375 26.99750977 7.2809375 28.33398438 7.3125 C34.25769111 7.34789183 38.5779633 6.3985727 44 4 C44.70899606 12.83484188 43.12879976 20.87741965 37.42578125 27.953125 C30.34859885 34.48590875 22.05426205 36.74204816 12.625 36.625 C11.70106445 36.61662109 10.77712891 36.60824219 9.82519531 36.59960938 C2.29123359 36.34998216 -3.04415172 34.77276806 -9 30 C-9.85207031 29.3503125 -10.70414063 28.700625 -11.58203125 28.03125 C-17.57944454 23.11998242 -19.52159661 19.76742666 -20.5 12.0625 C-20.41604965 7.69708185 -18.4184122 5.4340168 -15.5078125 2.34765625 C-11.25243012 -1.45572956 -5.33474553 -0.6638258 0 0 Z " fill="#5E4D41" transform="translate(166,306)"/>
<path d="M0 0 C3.13925856 1.5913961 5.53619703 3.50386365 8 6 C8.66 6.66 9.32 7.32 10 8 C9.89733015 15.62323648 7.42830255 21.7108847 2 27 C-8.36756304 35.5746762 -18.93024411 37.01842254 -32 36 C-35.46788233 35.27561642 -38.71651526 34.32602269 -42 33 C-42 32.34 -42 31.68 -42 31 C-42.721875 30.773125 -43.44375 30.54625 -44.1875 30.3125 C-48.27860259 28.40331879 -51.06185502 25.8247081 -53.13671875 21.7890625 C-54.21238111 18.31384564 -54.19287588 15.31885969 -54.125 11.6875 C-54.10695313 10.43324219 -54.08890625 9.17898438 -54.0703125 7.88671875 C-54.03550781 6.45779297 -54.03550781 6.45779297 -54 5 C-53.24976562 5.2165625 -52.49953125 5.433125 -51.7265625 5.65625 C-38.97062218 9.12637986 -29.80454022 8.87249703 -18.25 2.3125 C-12.29910429 -0.72783301 -6.55379252 -1.21057314 0 0 Z " fill="#5E4C42" transform="translate(130,306)"/>
<path d="M0 0 C2.0625 0.4375 2.0625 0.4375 4 1 C2 6 2 6 1 8.4375 C-8.84245171 33.6587825 -1.99085295 61.18031867 2.5 86.875 C3.10941502 90.3938021 3.71706822 93.91290278 4.32385254 97.43215942 C4.69816334 99.59970609 5.07423645 101.76694957 5.45251465 103.93380737 C10.24499204 131.51001592 10.24499204 131.51001592 8 136 C7.34 136 6.68 136 6 136 C-23.79786941 50.48787776 -23.79786941 50.48787776 -9.25 15.375 C-3.47375445 3.47375445 -3.47375445 3.47375445 0 0 Z " fill="#BEB297" transform="translate(113,21)"/>
<path d="M0 0 C1.28390625 0.04060547 1.28390625 0.04060547 2.59375 0.08203125 C3.2228125 0.11683594 3.851875 0.15164062 4.5 0.1875 C4.11863023 5.65380006 2.58707306 7.63072869 -1.5 11.1875 C-4.24847737 12.9650232 -7.09619887 14.49293223 -10 16 C-10.74636719 16.40669922 -11.49273437 16.81339844 -12.26171875 17.23242188 C-16.11155351 19.25954726 -19.02370369 20.7825632 -23.5 20.1875 C-23.17 22.1675 -22.84 24.1475 -22.5 26.1875 C-21.70303711 26.47471924 -20.90607422 26.76193848 -20.08496094 27.05786133 C-17.11599351 28.13152683 -14.14933434 29.21128647 -11.18408203 30.29516602 C-9.90274146 30.76212262 -8.62052136 31.22667338 -7.33740234 31.6887207 C-5.48823715 32.35508008 -3.64251024 33.03095631 -1.796875 33.70703125 C-0.68666992 34.11026611 0.42353516 34.51350098 1.56738281 34.92895508 C4.26254212 36.08559396 6.26260671 37.31427817 8.5 39.1875 C7.84 42.1575 7.18 45.1275 6.5 48.1875 C-3.48425785 46.57217323 -11.65903807 43.68275194 -20.60351562 39.13574219 C-22.53717428 38.16891286 -24.48951396 37.25583155 -26.453125 36.3515625 C-27.71900173 35.75574287 -28.98463582 35.15940739 -30.25 34.5625 C-31.37921875 34.03398437 -32.5084375 33.50546875 -33.671875 32.9609375 C-36.85892349 30.96242919 -38.06025139 29.64492449 -39.5 26.1875 C-39.9375 23.11328125 -39.9375 23.11328125 -39.5 20.1875 C-32.00848213 10.87712803 -12.32159588 -0.51339983 0 0 Z " fill="#605044" transform="translate(61.5,243.8125)"/>
<path d="M0 0 C11.86889271 1.42669554 25.29705999 5.78089643 35 13 C37.32085821 16.63243565 38.83408877 19.67271897 38 24 C36.26171875 25.96484375 36.26171875 25.96484375 33.6875 27.9375 C32.70265625 28.69933594 31.7178125 29.46117187 30.703125 30.24609375 C29.47015851 31.16595347 28.23561346 32.08369894 27 33 C26.22333984 33.58152832 25.44667969 34.16305664 24.64648438 34.76220703 C6.75440154 48.14683482 6.75440154 48.14683482 0 48 C0.41945967 42.75675417 1.29935786 38.80215602 5 35 C18.33357791 24.23452261 18.33357791 24.23452261 25 23 C19.49067652 17.73553534 13.99520686 14.91710858 7 12 C5.2690474 11.2331855 3.53971121 10.46270503 1.8125 9.6875 C0.54188278 9.12451199 -0.72886216 8.56181154 -2 8 C-1.34 5.36 -0.68 2.72 0 0 Z " fill="#65544A" transform="translate(214,242)"/>
<path d="M0 0 C2 0 2 0 3.296875 1.2578125 C17.32366228 19.28148003 18.61444559 43.40680545 20.31918335 65.35980225 C20.62681596 69.32003341 20.94770994 73.27918126 21.26953125 77.23828125 C21.33175369 78.00587769 21.39397614 78.77347412 21.45808411 79.56433105 C22.00560658 86.23739382 22.6635021 92.89532178 23.44140625 99.5456543 C23.88141555 103.38672683 24.07780034 107.13392157 24 111 C13.56614847 101.68406113 12.07699233 85.13606326 11 72 C10.90532766 69.51846787 10.85741603 67.03854684 10.81152344 64.55566406 C10.3207835 42.67489447 6.20249558 20.95651699 0 0 Z " fill="#B3A78B" transform="translate(66,47)"/>
<path d="M0 0 C4.81518713 1.60506238 7.80188631 3.76869418 10.23266602 8.2956543 C11.36006214 11.087058 12.48122085 13.87780906 13.5625 16.6875 C13.96162598 17.71536621 14.36075195 18.74323242 14.77197266 19.80224609 C17.5099424 27.10312022 19.33943951 34.10404584 20.3671875 41.8203125 C20.81110843 45.10370578 21.50683705 48.27380546 22.27734375 51.49609375 C24.48667704 60.85136584 26.26205647 70.29236135 28.0715332 79.73168945 C28.69100365 82.95573483 29.31902182 86.17804484 29.94726562 89.40039062 C30.3442727 91.46344115 30.74077524 93.52658884 31.13671875 95.58984375 C31.41789803 97.02432106 31.41789803 97.02432106 31.70475769 98.48777771 C32.57212025 103.05881757 33.23190389 107.32156997 33 112 C23.26817038 103.58630334 21.51694575 83.71956119 18.5625 71.6875 C18.07433085 69.72344261 17.58572034 67.75949487 17.09667969 65.7956543 C14.50015327 55.32967803 12.05013197 44.84757268 9.75 34.3125 C7.98341688 26.2389899 5.70164352 18.73638163 2.18261719 11.2434082 C0.35031592 7.30645059 -0.33299181 4.34221324 0 0 Z " fill="#BAAF96" transform="translate(41,60)"/>
<path d="M0 0 C0.66 0.33 1.32 0.66 2 1 C2.38563496 9.46891429 0.94461756 17.01024623 -0.95898438 25.22851562 C-5.78575677 47.48930173 -6.61582313 70.5073181 -7.6875 93.1875 C-7.81760654 95.81058432 -7.94846286 98.43363157 -8.08007812 101.05664062 C-8.39531109 107.37069513 -8.70148649 113.68513404 -9 120 C-9.66 120 -10.32 120 -11 120 C-17.11640886 87.27070581 -18.93510119 49.61053996 -7 18 C-6.74347656 17.27683594 -6.48695313 16.55367187 -6.22265625 15.80859375 C-5.51600789 13.85671638 -4.76897711 11.92812487 -4 10 C-3.64550781 9.10667969 -3.29101562 8.21335937 -2.92578125 7.29296875 C-1.95590414 4.85976828 -0.98052866 2.42892379 0 0 Z " fill="#CABEA4" transform="translate(159,26)"/>
<path d="M0 0 C0.33 0.99 0.66 1.98 1 3 C-1.64 3.99 -4.28 4.98 -7 6 C-6.59007813 6.60328125 -6.18015625 7.2065625 -5.7578125 7.828125 C-5.21898438 8.62734375 -4.68015625 9.4265625 -4.125 10.25 C-3.32449219 11.43335938 -3.32449219 11.43335938 -2.5078125 12.640625 C3.37014692 21.83826098 2.22297646 32.95084089 2.53515625 43.5546875 C2.57832046 44.94655106 2.62173671 46.33840682 2.66539001 47.73025513 C2.75570968 50.63309762 2.84372937 53.53599722 2.92993164 56.43896484 C3.03948826 60.1257127 3.15369268 63.81229774 3.26950932 67.49885368 C3.3593621 70.3695939 3.44727302 73.24039103 3.53457451 76.11120987 C3.59585245 78.12054009 3.65826817 80.12983551 3.72071838 82.13912964 C3.94555894 89.76218099 4.05127121 97.37369758 4 105 C3.67 105 3.34 105 3 105 C2.92483154 104.01942627 2.84966309 103.03885254 2.7722168 102.02856445 C1.25240201 62.3173714 1.25240201 62.3173714 -12.08203125 25.63671875 C-13 24 -13 24 -13 22 C-13.99 21.67 -14.98 21.34 -16 21 C-16.33 21.33 -16.66 21.66 -17 22 C-19 21 -19 21 -20 18 C-20.0685495 16.10529184 -20.08480372 14.2083166 -20.0625 12.3125 C-20.05347656 11.31863281 -20.04445312 10.32476562 -20.03515625 9.30078125 C-20.02355469 8.54152344 -20.01195312 7.78226563 -20 7 C-21.32 6.67 -22.64 6.34 -24 6 C-22.04901078 5.25996961 -20.09718992 4.52203542 -18.140625 3.796875 C-16.46270715 3.17224865 -14.79230598 2.52742408 -13.125 1.875 C-8.79777553 0.66337715 -4.47014825 0.33570283 0 0 Z " fill="#E4DDCF" transform="translate(84,28)"/>
<path d="M0 0 C-1.56054958 4.58411439 -3.29442732 7.47109962 -6.6875 10.9375 C-24.83836588 30.68112924 -32.15101088 65.23878335 -36 91 C-34.68 91 -33.36 91 -32 91 C-33.24028238 97.17222879 -34.89603589 103.06682122 -37 109 C-38.65 108.67 -40.3 108.34 -42 108 C-40.26821154 80.43440482 -40.26821154 80.43440482 -37 68 C-36.56880859 66.13988281 -36.56880859 66.13988281 -36.12890625 64.2421875 C-32.96948568 50.68461039 -28.68930344 37.44762958 -23.1484375 24.671875 C-22.02366716 22.05506236 -21.00881078 19.41326046 -20 16.75 C-15.9502385 6.63372829 -11.73873145 -0.7958462 0 0 Z " fill="#B4A88C" transform="translate(248,62)"/>
<path d="M0 0 C1.32 0.33 2.64 0.66 4 1 C1.38383304 12.26717302 -2.41331815 22.93902816 -6.62103271 33.69052124 C-13.97606622 52.48279446 -13.97606622 52.48279446 -19 72 C-19.25934326 73.30686768 -19.25934326 73.30686768 -19.52392578 74.64013672 C-23.16298072 93.58877112 -24.55423524 112.78698556 -26 132 C-26.66 132 -27.32 132 -28 132 C-28.49971711 84.71522962 -22.13794342 42.40799787 0 0 Z " fill="#C3B79E" transform="translate(208,26)"/>
<path d="M0 0 C4.52595394 2.0288759 4.52595394 2.0288759 6 5 C6.95615966 11.12539785 7.21113805 17.63568225 4.25 23.25 C0.92715232 27.31125828 0.92715232 27.31125828 -2 28 C-6.99085541 27.78300629 -10.20133701 26.20775986 -14 23 C-17.06236945 17.79397194 -17.82103721 12.91368695 -17 7 C-13.7808747 -0.56494446 -7.46777551 -1.0450189 0 0 Z " fill="#6E5E54" transform="translate(178,254)"/>
<path d="M0 0 C3.5 1.3125 3.5 1.3125 6 3 C7.21030349 6.63091047 7.29950617 10.02751364 7.375 13.8125 C7.41238281 14.51181641 7.44976562 15.21113281 7.48828125 15.93164062 C7.55473655 19.87834719 7.16400956 22.31527291 4.68359375 25.46484375 C2 28 2 28 -1.3125 28.75 C-6.20740935 27.75442522 -9.48747177 25.52060301 -13 22 C-16.14228344 17.23064423 -15.62892193 11.48060538 -15 6 C-11.21170269 -0.44010543 -6.96188384 -0.66581775 0 0 Z " fill="#6F6055" transform="translate(115,254)"/>
<path d="M0 0 C9.62806764 13.238593 7.12964839 29.30656157 7 45 C5.37807362 42.56711043 4.49852489 40.8788905 3.5546875 38.19921875 C-0.54133552 26.50833056 -0.54133552 26.50833056 -10 19 C-10.33 19.99 -10.66 20.98 -11 22 C-11.66 21.67 -12.32 21.34 -13 21 C-12.36843005 15.94744036 -10.86540627 11.70406799 -9 7 C-8.34 7 -7.68 7 -7 7 C-6.731875 6.401875 -6.46375 5.80375 -6.1875 5.1875 C-3.37142857 0 -3.37142857 0 0 0 Z " fill="#E2DBCC" transform="translate(51,41)"/>
<path d="M0 0 C4.8551776 1.61839253 7.83742216 3.78851051 10.24853516 8.375 C11.38643358 11.24564379 12.5201795 14.11641849 13.625 17 C14.21667969 18.46759766 14.21667969 18.46759766 14.8203125 19.96484375 C18.20488338 28.66639253 20.86356467 37.83690854 19.625 47.25 C19.51414062 48.16265625 19.40328125 49.0753125 19.2890625 50.015625 C19.19367187 50.67046875 19.09828125 51.3253125 19 52 C17.35 52 15.7 52 14 52 C13.82460693 51.21052979 13.64921387 50.42105957 13.46850586 49.60766602 C9.2187873 29.90648862 9.2187873 29.90648862 2.13452148 11.10180664 C0.31658102 7.21353559 -0.32108634 4.29207254 0 0 Z " fill="#AD9F83" transform="translate(41,60)"/>
<path d="M0 0 C2 0 2 0 3.296875 1.2578125 C11.06990601 11.24573945 15.42845144 23.49824293 17 36 C16.67 36.66 16.34 37.32 16 38 C14.68 37.67 13.36 37.34 12 37 C12 40.96 12 44.92 12 49 C11.34 49 10.68 49 10 49 C9.87471924 48.19071045 9.74943848 47.3814209 9.62036133 46.54760742 C7.15834916 30.80524483 4.53049544 15.30729097 0 0 Z " fill="#B8AD94" transform="translate(66,47)"/>
<path d="M0 0 C1.48886719 0.12568359 1.48886719 0.12568359 3.0078125 0.25390625 C10.00681806 0.79222461 16.61383949 1.06155561 23.625 0.3125 C30.56837528 -0.30574574 30.56837528 -0.30574574 33.875 1.6875 C36 4 36 4 36 8 C35.030625 7.91621094 34.06125 7.83242187 33.0625 7.74609375 C23.25821516 6.9755105 13.79283118 7.15354518 4 8 C2.68 5.36 1.36 2.72 0 0 Z " fill="#786960" transform="translate(92,236)"/>
<path d="M0 0 C3.0831351 1.19899698 6.06279492 2.47700477 9 4 C8.48327838 10.84656142 6.51998579 16.63822454 4 23 C3.50693359 24.37671875 3.50693359 24.37671875 3.00390625 25.78125 C2 28 2 28 -0.125 28.8125 C-0.74375 28.874375 -1.3625 28.93625 -2 29 C-2 28.34 -2 27.68 -2 27 C-2.66 26.34 -3.32 25.68 -4 25 C-3.505 24.13375 -3.01 23.2675 -2.5 22.375 C0.03543737 16.58991756 -0.79053405 10.17536665 -1 4 C-1 1 -1 1 0 0 Z " fill="#7E583D" transform="translate(749,258)"/>
<path d="M0 0 C1.99097846 2.98646769 2.94124926 5.59687262 4 9 C5.32 9 6.64 9 8 9 C6.75971762 15.17222879 5.10396411 21.06682122 3 27 C1.35 26.67 -0.3 26.34 -2 26 C-1.34 17.42 -0.68 8.84 0 0 Z " fill="#BDB199" transform="translate(208,144)"/>
<path d="M0 0 C1 3 1 3 -0.375 6.125 C-3.52474611 9.57472193 -5.21160561 10.01451363 -9.74609375 10.24609375 C-14.209175 9.75879025 -16.94875455 7.05124545 -20 4 C-20 3.01 -20 2.02 -20 1 C-18.21142578 1.01740234 -18.21142578 1.01740234 -16.38671875 1.03515625 C-14.82031406 1.04453592 -13.25390769 1.05363593 -11.6875 1.0625 C-10.50897461 1.07506836 -10.50897461 1.07506836 -9.30664062 1.08789062 C-8.1706543 1.09272461 -8.1706543 1.09272461 -7.01171875 1.09765625 C-5.96697388 1.10551147 -5.96697388 1.10551147 -4.90112305 1.11352539 C-2.77502032 1.06895991 -2.77502032 1.06895991 0 0 Z " fill="#8C8178" transform="translate(154,294)"/>
</svg>
